<svg width="100%" height="100%" viewBox="0 0 512 512" version="1.1" xmlns="http://www.w3.org/2000/svg" xmlns:xlink="http://www.w3.org/1999/xlink" xml:space="preserve" xmlns:serif="http://www.serif.com/" style="fill-rule:evenodd;clip-rule:evenodd;stroke-linejoin:round;stroke-miterlimit:2;"><path d="M497,240.848l-24.816,-0l4.394,-4.395c5.859,-5.859 5.859,-15.351 0,-21.211c-5.859,-5.859 -15.351,-5.859 -21.211,0l-25.605,25.606l-32.578,-0l34.394,-34.395c5.86,-5.859 5.86,-15.351 0,-21.211c-5.859,-5.859 -15.351,-5.859 -21.211,0l-55.605,55.606l-21.071,-0l24.426,-27.555c4.289,-4.82 4.992,-11.852 1.77,-17.445c-3.235,-5.582 -9.696,-8.512 -15.996,-7.192l-36.063,7.375l10.531,-18.246l75.954,-20.347c7.996,-2.141 12.742,-10.372 10.605,-18.372c-2.125,-8.011 -10.371,-12.757 -18.371,-10.601l-46.977,12.582l16.289,-28.211l34.965,-9.363c8,-2.137 12.746,-10.371 10.606,-18.368c-2.141,-8 -10.297,-12.73 -18.368,-10.605l-5.996,1.602l11.899,-20.602c4.144,-7.176 1.683,-16.348 -5.492,-20.492c-7.164,-4.133 -16.352,-1.684 -20.496,5.492l-11.895,20.605l-1.609,-6c-2.153,-8.011 -10.387,-12.757 -18.368,-10.605c-8,2.141 -12.761,10.371 -10.605,18.371l9.375,34.965l-16.289,28.215l-12.598,-46.981c-2.14,-7.996 -10.355,-12.715 -18.371,-10.605c-7.996,2.14 -12.758,10.371 -10.605,18.371l20.363,75.953l-10.539,18.254l-11.641,-34.941c-2.035,-6.122 -7.761,-10.254 -14.222,-10.254c-6.461,-0 -12.188,4.132 -14.227,10.254l-11.648,34.945l-10.532,-18.246l20.352,-75.965c2.137,-7.996 -2.609,-16.231 -10.606,-18.367c-7.953,-2.098 -16.214,2.621 -18.371,10.605l-12.586,46.985l-16.289,-28.215l9.364,-34.973c2.14,-7.996 -2.606,-16.23 -10.606,-18.367c-7.922,-2.125 -16.226,2.605 -18.367,10.601l-1.605,5.993l-11.887,-20.594c-4.16,-7.18 -13.344,-9.625 -20.492,-5.496c-7.176,4.148 -9.637,13.316 -5.493,20.496l11.895,20.605l-6.008,-1.609c-7.922,-2.109 -16.226,2.625 -18.367,10.605c-2.141,8.016 2.605,16.231 10.605,18.372l34.973,9.359l16.285,28.215l-46.98,-12.586c-7.942,-2.137 -16.231,2.609 -18.371,10.605c-2.137,7.996 2.609,16.231 10.605,18.368l75.953,20.347l10.535,18.246l-36.066,-7.375c-6.328,-1.273 -12.762,1.61 -15.996,7.192c-3.223,5.593 -2.52,12.625 1.769,17.445l24.426,27.555l-21.054,-0l-55.606,-55.606c-5.859,-5.859 -15.351,-5.859 -21.211,0c-5.859,5.86 -5.859,15.352 0,21.211l34.395,34.395l-32.578,-0l-25.606,-25.606c-5.859,-5.859 -15.351,-5.859 -21.211,0c-5.859,5.86 -5.859,15.352 0,21.211l4.395,4.395l-24.762,-0c-8.285,-0 -15,6.715 -15,15c-0,8.285 6.715,15 15,15l24.762,-0l-4.399,4.398c-5.855,5.856 -5.855,15.352 0,21.211c5.86,5.856 15.356,5.856 21.211,0l25.606,-25.605l32.578,-0l-34.395,34.394c-5.859,5.859 -5.859,15.352 0,21.211c5.86,5.859 15.352,5.859 21.211,0l55.606,-55.605l21.054,-0l-24.422,27.554c-4.292,4.817 -4.996,11.852 -1.773,17.446c3.238,5.582 9.727,8.539 15.996,7.191l36.067,-7.375l-10.536,18.246l-75.953,20.344c-7.996,2.14 -12.742,10.371 -10.601,18.371c2.136,8.027 10.398,12.832 18.367,10.605l46.984,-12.586l-16.289,28.211l-34.972,9.364c-7.997,2.14 -12.743,10.355 -10.606,18.371c2.141,7.996 10.43,12.801 18.371,10.605l6.004,-1.609l-11.894,20.605c-4.145,7.18 -1.684,16.348 5.492,20.493c7.109,4.105 16.308,1.734 20.496,-5.493l11.887,-20.593l1.601,5.988c2.156,8.082 10.477,12.734 18.371,10.605c7.996,-2.136 12.742,-10.371 10.606,-18.367l-9.368,-34.973l16.29,-28.214l12.589,46.984c2.149,8.066 10.446,12.742 18.368,10.605c8,-2.136 12.746,-10.371 10.605,-18.367l-20.352,-75.965l10.532,-18.246l11.652,34.942c2.035,6.125 7.762,10.254 14.223,10.254c6.461,-0 12.187,-4.129 14.222,-10.254l11.641,-34.938l10.539,18.254l-20.359,75.953c-2.157,7.996 2.605,16.231 10.601,18.367c7.918,2.137 16.203,-2.531 18.371,-10.601l12.598,-46.984l16.289,28.214l-9.375,34.969c-2.152,8 2.606,16.231 10.606,18.371c7.918,2.133 16.199,-2.531 18.367,-10.605l1.609,-6l11.899,20.605c4.148,7.184 13.339,9.625 20.492,5.492c7.176,-4.144 9.636,-13.316 5.492,-20.492l-11.895,-20.605l5.993,1.605c8.086,2.211 16.23,-2.605 18.367,-10.605c2.14,-7.996 -2.606,-16.231 -10.606,-18.367l-34.965,-9.368l-16.289,-28.211l46.981,12.586c8.012,2.243 16.242,-2.593 18.367,-10.605c2.141,-7.996 -2.605,-16.231 -10.605,-18.367l-75.954,-20.348l-10.531,-18.246l36.067,7.375c6.254,1.305 12.757,-1.609 15.996,-7.191c3.222,-5.594 2.519,-12.625 -1.774,-17.446l-24.426,-27.554l21.071,-0l55.605,55.605c5.86,5.859 15.352,5.859 21.211,0c5.86,-5.859 5.86,-15.352 0,-21.211l-34.394,-34.394l32.578,-0l25.605,25.605c5.86,5.859 15.352,5.859 21.211,0c5.86,-5.859 5.86,-15.352 0,-21.211l-4.394,-4.394l24.82,-0c8.285,-0 15,-6.719 15,-15c-0,-8.289 -6.715,-15.004 -15,-15.004Z" style="fill:#fff;fill-rule:nonzero;"/></svg>